<svg width="16" height="16" viewBox="0 0 16 16" fill="none" xmlns="http://www.w3.org/2000/svg">
<path d="M13.6134 3.05335C13.2789 2.71773 12.8815 2.45144 12.4439 2.26974C12.0064 2.08804 11.5372 1.99451 11.0634 1.99451C10.5896 1.99451 10.1204 2.08804 9.68284 2.26974C9.24526 2.45144 8.84784 2.71773 8.51339 3.05335L8.00006 3.57335L7.48672 3.05335C7.15227 2.71773 6.75486 2.45144 6.31727 2.26974C5.87969 2.08804 5.41053 1.99451 4.93672 1.99451C4.46291 1.99451 3.99376 2.08804 3.55618 2.26974C3.11859 2.45144 2.72118 2.71773 2.38672 3.05335C0.973391 4.46668 0.886724 6.85335 2.66672 8.66668L8.00006 14L13.3334 8.66668C15.1134 6.85335 15.0267 4.46668 13.6134 3.05335Z" stroke="#F24472" stroke-width="0.833333" stroke-linecap="round" stroke-linejoin="round"/>
<path d="M7.99997 3.57336L5.9133 5.6667C5.64949 5.93266 5.50146 6.29209 5.50146 6.6667C5.50146 7.0413 5.64949 7.40074 5.9133 7.6667C6.17926 7.93051 6.53869 8.07853 6.9133 8.07853C7.28791 8.07853 7.64734 7.93051 7.9133 7.6667L9.41997 6.19336C9.79441 5.82289 10.2999 5.61508 10.8266 5.61508C11.3534 5.61508 11.8589 5.82289 12.2333 6.19336L13.8333 7.79336" stroke="#F24472" stroke-width="0.833333" stroke-linecap="round" stroke-linejoin="round"/>
<path d="M12.0001 9.99996L10.6667 8.66663" stroke="#F24472" stroke-width="0.833333" stroke-linecap="round" stroke-linejoin="round"/>
<path d="M10.0001 12L8.66675 10.6666" stroke="#F24472" stroke-width="0.833333" stroke-linecap="round" stroke-linejoin="round"/>
</svg>
