<svg width="24" height="24" viewBox="0 0 24 24" fill="none" xmlns="http://www.w3.org/2000/svg">
<rect width="24" height="24" rx="6" transform="matrix(-1 0 0 1 24 0)" fill="url(#paint0_linear_333_40)"/>
<path d="M6.38661 7.05335C6.72106 6.71773 7.11848 6.45144 7.55606 6.26974C7.99365 6.08804 8.4628 5.99451 8.93661 5.99451C9.41042 5.99451 9.87957 6.08804 10.3172 6.26974C10.7547 6.45144 11.1522 6.71773 11.4866 7.05335L11.9999 7.57335L12.5133 7.05335C12.8477 6.71773 13.2451 6.45144 13.6827 6.26974C14.1203 6.08804 14.5895 5.99451 15.0633 5.99451C15.5371 5.99451 16.0062 6.08804 16.4438 6.26974C16.8814 6.45144 17.2788 6.71773 17.6133 7.05335C19.0266 8.46668 19.1133 10.8533 17.3333 12.6667L11.9999 18L6.66661 12.6667C4.88661 10.8533 4.97328 8.46668 6.38661 7.05335Z" stroke="white" stroke-width="1.25" stroke-linecap="round" stroke-linejoin="round"/>
<defs>
<linearGradient id="paint0_linear_333_40" x1="-1.2666e-07" y1="1" x2="24" y2="23.5" gradientUnits="userSpaceOnUse">
<stop stop-color="#F24BA7"/>
<stop offset="1" stop-color="#EF4444"/>
</linearGradient>
</defs>
</svg>
